<svg width="690" height="660" viewBox="0 0 690 660" fill="none" xmlns="http://www.w3.org/2000/svg">
<g filter="url(#filter0_dddddd_274_50)">
<path d="M86.0924 142.725C87.8872 143.979 89.1178 146.101 89.3854 148.165C89.4778 148.897 89.3562 148.892 89.4486 149.895C89.6188 151.774 90.1782 153.257 90.6306 154.226C89.5215 153.029 88.4077 151.832 87.2987 150.641C84.9688 148.567 82.634 146.489 80.3041 144.415L74.9634 138.311C74.4478 136.94 73.5187 133.873 74.3018 130.148C74.404 129.673 74.9244 127.294 76.7047 124.707C79.6329 120.439 83.7868 118.763 84.9444 118.317C92.6005 115.352 99.7264 118.894 100.923 119.514C105.631 122.847 107.718 126.127 108.749 128.583C109.051 129.3 109.031 129.411 109.455 130.395C109.81 131.233 111.439 134.963 115 139.052C117.427 141.838 119.689 143.572 121.128 144.658C122.169 145.442 123.541 146.484 125.311 147.463C126.6 148.175 129.426 149.585 135.083 150.553C141.621 151.677 145.643 152.365 150.318 150.597C152.161 149.899 155.634 148.582 157.395 145.074C158.703 142.468 158.402 139.982 158.305 139.261C157.619 134.14 153.256 131.398 152.385 130.85C148.649 128.501 144.024 128.176 140.546 129.615C138.941 130.279 137.019 131.548 137.194 132.502C137.331 133.263 138.702 133.316 140.59 134.687C141.616 135.438 142.341 136.247 142.827 136.872C140.108 135.865 138.157 136.029 136.907 136.334C134.762 136.863 134.48 137.87 131.61 138.892C131.114 139.072 128.901 139.827 125.939 139.842C123.565 139.852 121.605 139.857 120.058 138.563C119.149 137.798 118.735 136.683 117.947 134.479C116.469 130.351 117.135 129.683 115.958 127.759C115.262 126.621 113.949 125.613 111.322 123.593C108.958 121.781 107.776 121.224 106.687 119.47C106.366 118.957 105.894 118.08 105.485 116.462C105.14 115.105 104.391 111.438 105.568 106.278C106.891 100.479 109.79 96.5454 110.826 95.2276C113.205 92.1997 115.992 89.9663 119.562 87.1031C122.291 84.9134 124.596 83.3437 125.895 80.1365C126.853 77.7675 126.581 76.1833 126.518 75.849C126.061 73.4655 124.285 71.2515 121.921 70.4909C121.508 70.3552 120.253 69.9676 118.735 70.3261C117.519 70.612 116.726 71.2369 116.167 71.6875C114.494 73.0391 114.645 73.8966 113.146 75.5196C111.984 76.784 111.716 76.4595 109.464 78.281C108.307 79.2161 106.998 80.277 105.904 81.7014C104.376 83.6974 104.834 84.831 103.336 87.762C102.567 89.2687 101.75 90.3878 101.205 91.0806C100.981 90.3636 100.471 89.1476 99.2789 88.3288C98.8654 88.043 98.3012 87.6554 97.8489 87.8347C97.2262 88.0818 96.9928 89.3559 97.3187 91.0515C97.3624 91.2356 97.4014 91.4246 97.4451 91.6087L95.9859 91.0515C94.9839 89.9276 93.977 88.8036 92.975 87.6797C93.1307 87.2194 93.4323 86.5654 94.0305 86.0083C94.5607 85.5189 95.0909 85.3203 95.2125 85.267C96.0151 84.9085 96.7836 82.8786 96.6717 75.6504L95.0861 73.4848C95.3925 73.199 95.6989 72.9132 96.0054 72.6273C98.5979 65.3168 101.195 58.0062 103.788 50.6908C105.194 50.1288 106.604 49.562 108.01 49C106.424 53.9319 104.839 58.8685 103.248 63.8004C108.078 60.5012 112.908 57.202 117.738 53.9028C119.465 53.147 121.605 52.3816 124.115 51.839C128.254 50.9475 131.863 51.0057 134.466 51.2624C132.306 52.43 130.497 53.2681 129.251 53.8204C127.51 54.5859 125.798 55.4143 124.037 56.1313C122.067 56.9307 121.104 57.2407 120.311 58.2775C120.121 58.5246 118.794 60.0894 119.319 61.1649C119.771 62.0902 121.532 62.4972 123.541 61.8238C125.404 61.4362 127.914 60.9711 130.91 60.5884C133.77 60.2202 137.17 59.7939 141.592 59.8472C144.306 59.8762 146.932 59.9101 150.366 60.5884C152.75 61.0583 156.086 61.7511 159.803 63.8052C163.879 66.058 166.676 68.9939 168.495 71.392C166.826 70.3988 163.874 68.9503 159.968 68.6693C158.416 68.5578 156.636 68.4319 154.754 69.1634C150.079 70.985 148.62 76.5854 148.377 77.5737C146.266 74.2745 144.121 71.9006 142.496 70.3164C140.497 68.3592 139.242 67.5502 137.695 67.182C135.993 66.7799 133.206 66.7459 132.646 68.0879C132.209 69.1392 133.342 70.5441 133.639 70.893C134.874 71.2951 137.17 72.2591 138.936 74.5216C139.787 75.6116 140.959 77.1086 140.838 79.2209C140.692 81.7692 138.717 83.3922 138.269 83.7555C137.374 84.4967 136.518 84.8262 135.867 85.0732C133.571 85.9453 132.535 85.1217 130.9 85.7321C130.394 85.9211 129.986 86.1827 127.671 89.1137C123.813 94.0019 123.585 95.0145 123.531 95.7944C123.473 96.6083 123.234 98.4881 124.523 99.6702C125.769 100.809 127.875 99.7235 128.167 100.411C128.269 100.658 128.113 101.051 126.43 102.722C124.854 104.282 124.509 104.423 123.945 105.033C122.49 106.613 121.25 109.568 122.374 111.385C123.283 112.852 125.404 113.017 125.686 113.032C128.838 113.23 131.178 109.897 133.965 106.021C135.618 103.72 136.226 102.223 136.45 100.663C136.781 98.3573 136.543 97.6257 136.368 97.3641C135.341 95.8332 132.792 96.0997 132.559 96.1287C131.776 96.1093 130.283 95.9882 129.991 95.2228C129.611 94.2248 131.489 92.689 132.228 92.0883C141.699 84.3611 159.219 81.9436 159.219 81.9436C168.621 80.7712 174.147 79.9476 181.409 81.9436C186.545 83.3582 190.461 85.548 193 87.2194C190.432 87.171 188.311 87.3793 186.789 87.5925C183.355 88.0721 182.601 88.6486 182.192 89.2396C181.438 90.3394 181.72 91.7298 181.944 92.7423C182.732 96.3467 185.504 98.6334 186.91 99.6266C185.286 98.7594 183.019 97.6935 180.203 96.7828C178.709 96.2983 176.676 95.6491 173.952 95.3003C170.645 94.874 167.566 94.4767 164.389 95.9592C162.356 96.9087 161.028 98.2846 160.289 99.176C160.401 101.196 160.508 103.216 160.62 105.237C158.314 103.764 156.009 102.296 153.708 100.823C151.106 100.566 149.642 101.22 148.781 101.894C147.394 102.979 147.725 103.996 146.008 105.813C144.228 107.698 142.968 107.567 142.574 108.904C142.063 110.648 143.722 112.508 143.858 112.654C146.066 115.066 150.002 114.752 152.511 114.548C156.408 114.233 156.972 113.206 159.754 113.022C162.001 112.872 165.28 113.298 169.438 116.113C166.812 116.278 164.18 116.442 161.554 116.607C161.194 116.936 160.766 117.435 160.873 117.905C161.048 118.695 162.609 118.966 163.232 119.083C167.157 119.814 171.272 121.549 173.043 122.547C176.141 124.291 177.737 126.955 178.447 128.176C180.485 131.684 180.689 135.046 180.684 136.649C180.387 136.189 179.424 134.833 177.581 134.174C176.195 133.68 174.983 133.82 174.414 133.927C175.071 135.186 176.092 137.565 176.068 140.646C176.049 143.451 175.183 145.486 174.536 146.954C174.147 147.845 172.308 151.857 167.541 155.82C166.7 156.522 163.144 159.395 156.242 161.798C151.008 163.619 144.349 165.94 136.163 164.603C128.21 163.305 122.943 159.225 119.275 156.314C109.445 148.514 105.053 138.616 103.131 133.059C101.901 130.657 99.8285 127.696 96.4237 125.516C94.0062 123.966 91.3699 122.275 88.5974 123.288C86.0875 124.208 84.3218 127.038 84.3753 129.843C84.4143 131.766 85.2947 133.181 85.7422 133.801C84.925 132.318 83.5095 131.543 82.3908 131.819C80.8781 132.197 80.5376 134.334 80.4014 135.157C80.056 137.308 80.8538 139.823 82.6389 141.218C84.0008 142.284 84.4678 141.547 86.1167 142.7L86.0924 142.725Z" fill="#ED1C24"/>
<path d="M86.0924 142.725C87.8872 143.979 89.1178 146.101 89.3854 148.165C89.4778 148.897 89.3562 148.892 89.4486 149.895C89.6188 151.774 90.1782 153.257 90.6306 154.226C89.5215 153.029 88.4077 151.832 87.2987 150.641C84.9688 148.567 82.634 146.489 80.3041 144.415L74.9634 138.311C74.4478 136.94 73.5187 133.873 74.3018 130.148C74.404 129.673 74.9244 127.294 76.7047 124.707C79.6329 120.439 83.7868 118.763 84.9444 118.317C92.6005 115.352 99.7264 118.894 100.923 119.514C105.631 122.847 107.718 126.127 108.749 128.583C109.051 129.3 109.031 129.411 109.455 130.395C109.81 131.233 111.439 134.963 115 139.052C117.427 141.838 119.689 143.572 121.128 144.658C122.169 145.442 123.541 146.484 125.311 147.463C126.6 148.175 129.426 149.585 135.083 150.553C141.621 151.677 145.643 152.365 150.318 150.597C152.161 149.899 155.634 148.582 157.395 145.074C158.703 142.468 158.402 139.982 158.305 139.261C157.619 134.14 153.256 131.398 152.385 130.85C148.649 128.501 144.024 128.176 140.546 129.615C138.941 130.279 137.019 131.548 137.194 132.502C137.331 133.263 138.702 133.316 140.59 134.687C141.616 135.438 142.341 136.247 142.827 136.872C140.108 135.865 138.157 136.029 136.907 136.334C134.762 136.863 134.48 137.87 131.61 138.892C131.114 139.072 128.901 139.827 125.939 139.842C123.565 139.852 121.605 139.857 120.058 138.563C119.149 137.798 118.735 136.683 117.947 134.479C116.469 130.351 117.135 129.683 115.958 127.759C115.262 126.621 113.949 125.613 111.322 123.593C108.958 121.781 107.776 121.224 106.687 119.47C106.366 118.957 105.894 118.08 105.485 116.462C105.14 115.105 104.391 111.438 105.568 106.278C106.891 100.479 109.79 96.5454 110.826 95.2276C113.205 92.1997 115.992 89.9663 119.562 87.1031C122.291 84.9134 124.596 83.3437 125.895 80.1365C126.853 77.7675 126.581 76.1833 126.518 75.849C126.061 73.4655 124.285 71.2515 121.921 70.4909C121.508 70.3552 120.253 69.9676 118.735 70.3261C117.519 70.612 116.726 71.2369 116.167 71.6875C114.494 73.0391 114.645 73.8966 113.146 75.5196C111.984 76.784 111.716 76.4595 109.464 78.281C108.307 79.2161 106.998 80.277 105.904 81.7014C104.376 83.6974 104.834 84.831 103.336 87.762C102.567 89.2687 101.75 90.3878 101.205 91.0806C100.981 90.3636 100.471 89.1476 99.2789 88.3288C98.8654 88.043 98.3012 87.6554 97.8489 87.8347C97.2262 88.0818 96.9928 89.3559 97.3187 91.0515C97.3624 91.2356 97.4014 91.4246 97.4451 91.6087L95.9859 91.0515C94.9839 89.9276 93.977 88.8036 92.975 87.6797C93.1307 87.2194 93.4323 86.5654 94.0305 86.0083C94.5607 85.5189 95.0909 85.3203 95.2125 85.267C96.0151 84.9085 96.7836 82.8786 96.6717 75.6504L95.0861 73.4848C95.3925 73.199 95.6989 72.9132 96.0054 72.6273C98.5979 65.3168 101.195 58.0062 103.788 50.6908C105.194 50.1288 106.604 49.562 108.01 49C106.424 53.9319 104.839 58.8685 103.248 63.8004C108.078 60.5012 112.908 57.202 117.738 53.9028C119.465 53.147 121.605 52.3816 124.115 51.839C128.254 50.9475 131.863 51.0057 134.466 51.2624C132.306 52.43 130.497 53.2681 129.251 53.8204C127.51 54.5859 125.798 55.4143 124.037 56.1313C122.067 56.9307 121.104 57.2407 120.311 58.2775C120.121 58.5246 118.794 60.0894 119.319 61.1649C119.771 62.0902 121.532 62.4972 123.541 61.8238C125.404 61.4362 127.914 60.9711 130.91 60.5884C133.77 60.2202 137.17 59.7939 141.592 59.8472C144.306 59.8762 146.932 59.9101 150.366 60.5884C152.75 61.0583 156.086 61.7511 159.803 63.8052C163.879 66.058 166.676 68.9939 168.495 71.392C166.826 70.3988 163.874 68.9503 159.968 68.6693C158.416 68.5578 156.636 68.4319 154.754 69.1634C150.079 70.985 148.62 76.5854 148.377 77.5737C146.266 74.2745 144.121 71.9006 142.496 70.3164C140.497 68.3592 139.242 67.5502 137.695 67.182C135.993 66.7799 133.206 66.7459 132.646 68.0879C132.209 69.1392 133.342 70.5441 133.639 70.893C134.874 71.2951 137.17 72.2591 138.936 74.5216C139.787 75.6116 140.959 77.1086 140.838 79.2209C140.692 81.7692 138.717 83.3922 138.269 83.7555C137.374 84.4967 136.518 84.8262 135.867 85.0732C133.571 85.9453 132.535 85.1217 130.9 85.7321C130.394 85.9211 129.986 86.1827 127.671 89.1137C123.813 94.0019 123.585 95.0145 123.531 95.7944C123.473 96.6083 123.234 98.4881 124.523 99.6702C125.769 100.809 127.875 99.7235 128.167 100.411C128.269 100.658 128.113 101.051 126.43 102.722C124.854 104.282 124.509 104.423 123.945 105.033C122.49 106.613 121.25 109.568 122.374 111.385C123.283 112.852 125.404 113.017 125.686 113.032C128.838 113.23 131.178 109.897 133.965 106.021C135.618 103.72 136.226 102.223 136.45 100.663C136.781 98.3573 136.543 97.6257 136.368 97.3641C135.341 95.8332 132.792 96.0997 132.559 96.1287C131.776 96.1093 130.283 95.9882 129.991 95.2228C129.611 94.2248 131.489 92.689 132.228 92.0883C141.699 84.3611 159.219 81.9436 159.219 81.9436C168.621 80.7712 174.147 79.9476 181.409 81.9436C186.545 83.3582 190.461 85.548 193 87.2194C190.432 87.171 188.311 87.3793 186.789 87.5925C183.355 88.0721 182.601 88.6486 182.192 89.2396C181.438 90.3394 181.72 91.7298 181.944 92.7423C182.732 96.3467 185.504 98.6334 186.91 99.6266C185.286 98.7594 183.019 97.6935 180.203 96.7828C178.709 96.2983 176.676 95.6491 173.952 95.3003C170.645 94.874 167.566 94.4767 164.389 95.9592C162.356 96.9087 161.028 98.2846 160.289 99.176C160.401 101.196 160.508 103.216 160.62 105.237C158.314 103.764 156.009 102.296 153.708 100.823C151.106 100.566 149.642 101.22 148.781 101.894C147.394 102.979 147.725 103.996 146.008 105.813C144.228 107.698 142.968 107.567 142.574 108.904C142.063 110.648 143.722 112.508 143.858 112.654C146.066 115.066 150.002 114.752 152.511 114.548C156.408 114.233 156.972 113.206 159.754 113.022C162.001 112.872 165.28 113.298 169.438 116.113C166.812 116.278 164.18 116.442 161.554 116.607C161.194 116.936 160.766 117.435 160.873 117.905C161.048 118.695 162.609 118.966 163.232 119.083C167.157 119.814 171.272 121.549 173.043 122.547C176.141 124.291 177.737 126.955 178.447 128.176C180.485 131.684 180.689 135.046 180.684 136.649C180.387 136.189 179.424 134.833 177.581 134.174C176.195 133.68 174.983 133.82 174.414 133.927C175.071 135.186 176.092 137.565 176.068 140.646C176.049 143.451 175.183 145.486 174.536 146.954C174.147 147.845 172.308 151.857 167.541 155.82C166.7 156.522 163.144 159.395 156.242 161.798C151.008 163.619 144.349 165.94 136.163 164.603C128.21 163.305 122.943 159.225 119.275 156.314C109.445 148.514 105.053 138.616 103.131 133.059C101.901 130.657 99.8285 127.696 96.4237 125.516C94.0062 123.966 91.3699 122.275 88.5974 123.288C86.0875 124.208 84.3218 127.038 84.3753 129.843C84.4143 131.766 85.2947 133.181 85.7422 133.801C84.925 132.318 83.5095 131.543 82.3908 131.819C80.8781 132.197 80.5376 134.334 80.4014 135.157C80.056 137.308 80.8538 139.823 82.6389 141.218C84.0008 142.284 84.4678 141.547 86.1167 142.7L86.0924 142.725Z" stroke="white" stroke-width="2" stroke-miterlimit="10"/>
</g>
<defs>
<filter id="filter0_dddddd_274_50" x="-420.215" y="-445.934" width="1109.87" height="1105.15" filterUnits="userSpaceOnUse" color-interpolation-filters="sRGB">
<feFlood flood-opacity="0" result="BackgroundImageFix"/>
<feColorMatrix in="SourceAlpha" type="matrix" values="0 0 0 0 0 0 0 0 0 0 0 0 0 0 0 0 0 0 127 0" result="hardAlpha"/>
<feOffset/>
<feGaussianBlur stdDeviation="5.87161"/>
<feColorMatrix type="matrix" values="0 0 0 0 0.929412 0 0 0 0 0.109804 0 0 0 0 0.141176 0 0 0 1 0"/>
<feBlend mode="normal" in2="BackgroundImageFix" result="effect1_dropShadow_274_50"/>
<feColorMatrix in="SourceAlpha" type="matrix" values="0 0 0 0 0 0 0 0 0 0 0 0 0 0 0 0 0 0 127 0" result="hardAlpha"/>
<feOffset/>
<feGaussianBlur stdDeviation="11.7432"/>
<feColorMatrix type="matrix" values="0 0 0 0 0.929412 0 0 0 0 0.109804 0 0 0 0 0.141176 0 0 0 1 0"/>
<feBlend mode="normal" in2="effect1_dropShadow_274_50" result="effect2_dropShadow_274_50"/>
<feColorMatrix in="SourceAlpha" type="matrix" values="0 0 0 0 0 0 0 0 0 0 0 0 0 0 0 0 0 0 127 0" result="hardAlpha"/>
<feOffset/>
<feGaussianBlur stdDeviation="41.1013"/>
<feColorMatrix type="matrix" values="0 0 0 0 0.929412 0 0 0 0 0.109804 0 0 0 0 0.141176 0 0 0 1 0"/>
<feBlend mode="normal" in2="effect2_dropShadow_274_50" result="effect3_dropShadow_274_50"/>
<feColorMatrix in="SourceAlpha" type="matrix" values="0 0 0 0 0 0 0 0 0 0 0 0 0 0 0 0 0 0 127 0" result="hardAlpha"/>
<feOffset/>
<feGaussianBlur stdDeviation="82.2026"/>
<feColorMatrix type="matrix" values="0 0 0 0 0.929412 0 0 0 0 0.109804 0 0 0 0 0.141176 0 0 0 1 0"/>
<feBlend mode="normal" in2="effect3_dropShadow_274_50" result="effect4_dropShadow_274_50"/>
<feColorMatrix in="SourceAlpha" type="matrix" values="0 0 0 0 0 0 0 0 0 0 0 0 0 0 0 0 0 0 127 0" result="hardAlpha"/>
<feOffset/>
<feGaussianBlur stdDeviation="140.919"/>
<feColorMatrix type="matrix" values="0 0 0 0 0.929412 0 0 0 0 0.109804 0 0 0 0 0.141176 0 0 0 1 0"/>
<feBlend mode="normal" in2="effect4_dropShadow_274_50" result="effect5_dropShadow_274_50"/>
<feColorMatrix in="SourceAlpha" type="matrix" values="0 0 0 0 0 0 0 0 0 0 0 0 0 0 0 0 0 0 127 0" result="hardAlpha"/>
<feOffset/>
<feGaussianBlur stdDeviation="246.608"/>
<feColorMatrix type="matrix" values="0 0 0 0 0.929412 0 0 0 0 0.109804 0 0 0 0 0.141176 0 0 0 1 0"/>
<feBlend mode="normal" in2="effect5_dropShadow_274_50" result="effect6_dropShadow_274_50"/>
<feBlend mode="normal" in="SourceGraphic" in2="effect6_dropShadow_274_50" result="shape"/>
</filter>
</defs>
</svg>
